<?xml version="1.0" encoding="utf-8"?>
<!-- Generator: Adobe Illustrator 22.1.0, SVG Export Plug-In . SVG Version: 6.00 Build 0)  -->
<svg version="1.1" id="Layer_1" xmlns="http://www.w3.org/2000/svg" xmlns:xlink="http://www.w3.org/1999/xlink" x="0px" y="0px"
	 viewBox="0 0 254.2 162.7" style="enable-background:new 0 0 254.2 162.7;" xml:space="preserve">
<g>
	<path d="M8.6,153.3l-4.1,9.4H0l16.6-37.1H21l16.6,37.1H33l-4.1-9.4H8.6z M18.7,130.4l-8.3,18.8h16.6L18.7,130.4z"/>
	<path d="M98.3,162.7l-0.1-30.6l-13.5,26.7h-2.5l-13.5-26.7v30.6h-4v-37.1h5.2l13.6,26.7L97,125.6h5.2v37.1H98.3z"/>
	<path d="M139,129.7v12.2h18.7v4.1H139v12.7h21.6v4h-25.9v-37.1h25.2v4.1H139z"/>
	<path d="M190.4,162.7v-37.1h4.2v37.1H190.4z"/>
	<path d="M229.3,158.7h24.9l-0.1,4h-30.4v-3.4l24.6-29.6h-23.9v-4.1h29.5v3.4L229.3,158.7z"/>
</g>
<path d="M107.2,10.1c0.6-3.4,1.5-6.7,2.8-10.1c0.8,2.4,2.1,4.8,3.6,7.1c4.1,6.3,9.3,9.3,15.3,12.8c6,3.5,12.8,7.5,20.4,16.1
	c12.8,14.4,13.6,28.7,12,38.1c-0.4,2.5-1,4.9-1.9,7.3c-3.4-9.5-10.1-14.6-17.8-18.8c-7.8-4.3-17.4-8.1-26.1-19.4
	C107.9,33.3,105.1,22.2,107.2,10.1z"/>
<path d="M125.3,81.3l-13.1-19.6l0,0c-2.3-3.5-6.2-5.9-10.7-5.9c-7,0-12.7,5.7-12.7,12.7c0,6.7,5.1,12.3,11.7,12.8h0H125.3z"/>
<rect x="-90.6" y="363" width="25.5" height="25.5"/>
<text transform="matrix(1 0 0 1 -98.0681 403.4421)"><tspan x="0" y="0" style="font-family:'MyriadPro-Regular'; font-size:7.2107px;">Negro 100%</tspan><tspan x="-4.8" y="8.7" style="font-family:'MyriadPro-Regular'; font-size:7.2107px;">C0 M0 Y0 K100 </tspan></text>
</svg>
