<?xml version="1.0" encoding="UTF-8"?>
<svg width="74px" height="48px" viewBox="0 0 74 48" version="1.1" xmlns="http://www.w3.org/2000/svg" xmlns:xlink="http://www.w3.org/1999/xlink">
    <!-- Generator: Sketch 50 (54983) - http://www.bohemiancoding.com/sketch -->
    <title>Group</title>
    <desc>Created with Sketch.</desc>
    <defs>
        <polygon id="path-1" points="0.721999515 0.33 16.8609376 0.33 16.8609376 23.777025 0.721999515 23.777025"></polygon>
    </defs>
    <g id="Symbols" stroke="none" stroke-width="1" fill="none" fill-rule="evenodd">
        <g id="menu" transform="translate(-685.000000, -47.000000)">
            <g id="Group" transform="translate(685.000000, 47.000000)">
                <path d="M4.86422995,37 L0,48 L1.31562219,48 L2.52331928,45.2187807 L8.4424791,45.2187807 L9.65017619,48 L11,48 L6.15021074,37 L4.86422995,37 Z M5.46921854,38.4306938 L7.91501416,44.0085494 L3.05078422,44.0085494 L5.46921854,38.4306938 Z" id="Fill-1" fill="#38322F"></path>
                <polygon id="Fill-2" fill="#38322F" points="28.4773452 37 24.5137176 44.9189208 20.5378966 37 19 37 19 48 20.1804767 48 20.1804767 38.9325158 24.1258141 46.8375613 24.8734239 46.8375613 28.834003 38.9325158 28.8492448 48 30 48 30 37"></polygon>
                <polygon id="Fill-3" fill="#38322F" points="39 37 39 48 47 48 47 46.8059566 40.3118842 46.8059566 40.3118842 43.0341976 46.0991353 43.0341976 46.0991353 41.8239664 40.3118842 41.8239664 40.3118842 38.2102313 46.7876533 38.2102313 46.7876533 37"></polygon>
                <polygon id="Fill-4" fill="#38322F" points="55 48 56 48 56 37 55 37"></polygon>
                <polygon id="Fill-5" fill="#38322F" points="65.2046154 37 65.2046154 38.2102313 72.2746154 38.2102313 65 46.9940434 65 48 73.9846154 48 74 46.8059566 66.6469231 46.8059566 73.9215385 38.0074982 73.9215385 37"></polygon>
                <g id="Group-11" transform="translate(26.000000, 0.000000)">
                    <g id="Group-8" transform="translate(4.551724, 0.000000)">
                        <mask id="mask-2" fill="white">
                            <use xlink:href="#path-1"></use>
                        </mask>
                        <g id="Clip-7"></g>
                        <path d="M0.917096552,3.228525 C1.08626897,2.258775 1.36013103,1.286025 1.73337241,0.329775 C1.98068276,1.016775 2.33192414,1.702275 2.78557931,2.378025 C3.99178621,4.181775 5.49688966,5.056275 7.24095862,6.068025 C8.99337241,7.084275 10.9794414,8.234775 13.1900621,10.697775 C16.9270276,14.859525 17.1500621,18.968775 16.6819931,21.681525 C16.5590966,22.391775 16.3770276,23.093775 16.1380621,23.777025 C15.132131,21.030525 13.196131,19.565025 10.9407517,18.343275 C8.65730345,17.105775 5.86709655,16.009275 3.31737241,12.745275 C1.11888966,9.932025 0.310958621,6.730275 0.917096552,3.228525" id="Fill-6" fill="#38322F" mask="url(#mask-2)"></path>
                    </g>
                    <path d="M10.7718069,23.7774 L6.94304828,18.1149 L6.94001379,18.11715 C6.28228966,17.0964 5.13222069,16.4169 3.81677241,16.4169 C1.76925517,16.4169 0.109393103,18.0579 0.109393103,20.0829 C0.109393103,22.00665 1.61070345,23.62665 3.51711724,23.7774 L3.52166897,23.7774 L10.7718069,23.7774 Z" id="Fill-9" fill="#38322F"></path>
                </g>
            </g>
        </g>
    </g>
</svg>