<?xml version="1.0" encoding="UTF-8"?>
<svg width="64px" height="64px" viewBox="0 0 64 64" version="1.1" xmlns="http://www.w3.org/2000/svg" xmlns:xlink="http://www.w3.org/1999/xlink">
    <!-- Generator: Sketch 50 (54983) - http://www.bohemiancoding.com/sketch -->
    <title>Group 2</title>
    <desc>Created with Sketch.</desc>
    <defs></defs>
    <g id="Home-landing" stroke="none" stroke-width="1" fill="none" fill-rule="evenodd">
        <g id="1.0_Home" transform="translate(-540.000000, -3635.000000)" fill="#ED7A82" stroke="#ED7A82">
            <g id="Group-2" transform="translate(541.000000, 3636.000000)">
                <path d="M31,0 C13.9076006,0 0,13.9076006 0,31 C0,36.8271237 1.61847988,42.4918033 4.69150522,47.4053651 C3.46944858,51.6959762 1.25782414,59.8107303 1.23397914,59.8971684 C1.11773472,60.3174367 1.23994039,60.7645306 1.55439642,61.0625931 C1.86885246,61.3651267 2.32339791,61.4754098 2.73621461,61.3472429 L15.0193741,57.5692996 C19.8345753,60.4679583 25.3472429,62 31,62 C48.0923994,62 62,48.0923994 62,31 C62,13.9076006 48.0923994,0 31,0 Z M31,59.6125186 C25.609538,59.6125186 20.3636364,58.1043219 15.8166915,55.2578241 C15.6304024,55.1415797 15.4098361,55.0774963 15.1877794,55.0774963 C15.0655738,55.0774963 14.9493294,55.09538 14.8390462,55.1296572 L4.11028316,58.4307004 C4.89567809,55.5543964 6.3099851,50.4083458 7.13114754,47.5499255 C7.23099851,47.219076 7.17138599,46.85693 6.98658718,46.5663189 C3.97615499,41.9329359 2.38748137,36.5529061 2.38748137,31 C2.38748137,15.2235469 15.2235469,2.38748137 31,2.38748137 C46.7764531,2.38748137 59.6125186,15.2235469 59.6125186,31 C59.6125186,46.7764531 46.7764531,59.6125186 31,59.6125186 Z" id="Fill-1"></path>
                <path d="M51.3958783,39.2682557 C49.2339173,38.0176017 47.392518,36.7669477 46.0487941,35.8487847 C45.0256318,35.1517739 44.2820461,34.6515123 43.7389943,34.364777 C42.2240115,33.5732045 41.0691115,34.1329484 40.6343773,34.5920299 C40.577291,34.6515123 40.5319147,34.7109946 40.4865384,34.7826784 C38.9071506,37.2428063 36.849116,39.6022718 36.2489779,39.7334379 C35.5507684,39.620574 32.2866026,37.6835856 29.0502481,34.8711393 C25.7392422,32.0007359 23.6592513,29.247772 23.3503998,27.3763666 C25.4713757,25.0946857 26.2369177,23.6655847 26.2369177,22.0321086 C26.2369177,20.3528769 22.4750764,13.3400635 21.794432,12.6308512 C21.1137875,11.9231641 19.5753847,11.808775 17.2260636,12.2983603 C17.0035733,12.3456411 16.7913294,12.4646057 16.6259254,12.6308512 C16.3448852,12.929788 9.6848159,20.0005585 12.8523741,28.5751642 C16.3229289,37.9809972 25.2371754,48.9196439 36.6032057,50.6949624 C37.8956983,50.8978124 39.1076845,51 40.2406282,51 C46.9241175,51 50.8689277,47.4905429 51.9843064,40.5372119 C52.0648127,40.0308495 51.8306125,39.5183864 51.3958783,39.2682557 Z M36.9530424,48.2821154 C24.9341789,46.4061344 17.3636562,33.9956815 15.0362913,27.6981812 C12.7264915,21.4494869 16.9801533,15.877976 18.0486919,14.6212212 C18.9181603,14.4671773 19.833005,14.4015942 20.2165078,14.4671773 C21.0113249,15.6217444 23.773424,21.0559885 23.8993066,22.0321086 C23.8993066,22.6757379 23.6987726,23.5694979 21.3143215,26.0540288 C21.0918312,26.2812818 20.9718036,26.5908949 20.9718036,26.9188103 C20.9718036,33.3047715 33.8996568,42.170688 36.1918916,42.170688 C38.1811299,42.170688 40.78368,38.6795332 42.2591415,36.4085286 C42.3440391,36.4085286 42.4874867,36.4390323 42.6924119,36.5457955 C43.1154361,36.7669477 43.8473119,37.2672093 44.7680115,37.8925363 C45.9917078,38.726814 47.6106169,39.8279996 49.5252039,40.9718904 C48.6571992,45.3278267 46.225908,49.7371445 36.9530424,48.2821154 Z" id="Fill-2"></path>
            </g>
        </g>
    </g>
</svg>