<?xml version="1.0" encoding="UTF-8"?>
<svg width="71px" height="43px" viewBox="0 0 71 43" version="1.1" xmlns="http://www.w3.org/2000/svg" xmlns:xlink="http://www.w3.org/1999/xlink">
    <!-- Generator: Sketch 50 (54983) - http://www.bohemiancoding.com/sketch -->
    <title>Fill 1</title>
    <desc>Created with Sketch.</desc>
    <defs></defs>
    <g id="Home-landing" stroke="none" stroke-width="1" fill="none" fill-rule="evenodd">
        <g id="1.0_Home" transform="translate(-825.000000, -3649.000000)" fill="#ED7A82">
            <path d="M833,3653.07521 L889,3653 L861.027123,3672 L833,3653.07521 Z M872.815664,3675.20615 L889.384905,3687.92282 L832.565653,3688 L849.236006,3675.20615 C850.032923,3674.59447 850.178045,3673.45919 849.559954,3672.6704 C848.941862,3671.88161 847.794675,3671.73814 846.997619,3672.34968 L829.044428,3686.12816 L829,3654.08656 L859.96639,3675.26473 C860.278917,3675.4785 860.641722,3675.58518 861.004666,3675.58518 C861.369142,3675.58518 861.733896,3675.47726 862.046981,3675.26184 L892.953204,3654 L893,3686.12293 L875.053911,3672.34968 C874.257412,3671.73814 873.109808,3671.88161 872.491577,3672.6704 C871.873486,3673.45905 872.018469,3674.59447 872.815664,3675.20615 Z M895.950769,3652.6197 C895.947857,3650.62264 894.31694,3649 892.313829,3649 C892.312165,3649 892.310501,3649 892.309114,3649 L828.631812,3649.08721 C827.660418,3649.08846 826.747681,3649.46675 826.061534,3650.15229 C825.375664,3650.83797 824.998755,3651.74881 825.000003,3652.71686 L825.049232,3688.38003 C825.050618,3689.34822 825.430024,3690.25808 826.117973,3690.94183 C826.804537,3691.62447 827.716302,3692 828.686033,3692 C828.687697,3692 828.689499,3692 828.691025,3692 L892.368188,3691.91279 C894.373102,3691.91002 896.002355,3690.282 895.999997,3688.28314 L895.950769,3652.6197 Z" id="Fill-1"></path>
        </g>
    </g>
</svg>