<?xml version="1.0" encoding="UTF-8"?>
<svg width="22px" height="24px" viewBox="0 0 22 24" version="1.1" xmlns="http://www.w3.org/2000/svg" xmlns:xlink="http://www.w3.org/1999/xlink">
    <!-- Generator: Sketch 50 (54983) - http://www.bohemiancoding.com/sketch -->
    <title>Group 11</title>
    <desc>Created with Sketch.</desc>
    <defs>
        <polygon id="path-1" points="0.721999515 0.33 16.8609376 0.33 16.8609376 23.777025 0.721999515 23.777025"></polygon>
    </defs>
    <g id="Symbols" stroke="none" stroke-width="1" fill="none" fill-rule="evenodd">
        <g id="Footer" transform="translate(-515.000000, -286.000000)">
            <g id="Group-11" transform="translate(515.000000, 286.000000)">
                <g id="Group-8" transform="translate(4.551724, 0.000000)">
                    <mask id="mask-2" fill="white">
                        <use xlink:href="#path-1"></use>
                    </mask>
                    <g id="Clip-7"></g>
                    <path d="M0.917096552,3.228525 C1.08626897,2.258775 1.36013103,1.286025 1.73337241,0.329775 C1.98068276,1.016775 2.33192414,1.702275 2.78557931,2.378025 C3.99178621,4.181775 5.49688966,5.056275 7.24095862,6.068025 C8.99337241,7.084275 10.9794414,8.234775 13.1900621,10.697775 C16.9270276,14.859525 17.1500621,18.968775 16.6819931,21.681525 C16.5590966,22.391775 16.3770276,23.093775 16.1380621,23.777025 C15.132131,21.030525 13.196131,19.565025 10.9407517,18.343275 C8.65730345,17.105775 5.86709655,16.009275 3.31737241,12.745275 C1.11888966,9.932025 0.310958621,6.730275 0.917096552,3.228525" id="Fill-6" fill="#FFFFFF" mask="url(#mask-2)"></path>
                </g>
                <path d="M10.7718069,23.7774 L6.94304828,18.1149 L6.94001379,18.11715 C6.28228966,17.0964 5.13222069,16.4169 3.81677241,16.4169 C1.76925517,16.4169 0.109393103,18.0579 0.109393103,20.0829 C0.109393103,22.00665 1.61070345,23.62665 3.51711724,23.7774 L3.52166897,23.7774 L10.7718069,23.7774 Z" id="Fill-9" fill="#FFFFFF"></path>
            </g>
        </g>
    </g>
</svg>